<?xml version="1.0" encoding="UTF-8"?>
<!DOCTYPE svg PUBLIC "-//W3C//DTD SVG 1.1//EN" "http://www.w3.org/Graphics/SVG/1.1/DTD/svg11.dtd">
<svg xmlns="http://www.w3.org/2000/svg" version="1.1" width="90px" height="90px" style="shape-rendering:geometricPrecision; text-rendering:geometricPrecision; image-rendering:optimizeQuality; fill-rule:evenodd; clip-rule:evenodd" xmlns:xlink="http://www.w3.org/1999/xlink">
  <g>
    <path style="opacity:0.848" fill="#c26850" d="M 31.5,-0.5 C 31.8333,-0.5 32.1667,-0.5 32.5,-0.5C 34.0539,6.00408 36.2205,12.6707 39,19.5C 40.6134,20.6223 41.7801,20.1223 42.5,18C 48.8631,16.5042 51.1964,18.8375 49.5,25C 50.6007,27.2711 52.2673,29.1045 54.5,30.5C 55.1073,35.7329 56.4406,40.7329 58.5,45.5C 59.5,45.5 60.5,45.5 61.5,45.5C 61.1669,48.6842 61.0002,52.0175 61,55.5C 60.0853,56.3279 59.4186,57.3279 59,58.5C 58.3333,62.5 58.3333,66.5 59,70.5C 61.4889,75.4778 63.9889,80.4778 66.5,85.5C 68.2251,86.0149 69.8917,86.6816 71.5,87.5C 68.2156,88.657 64.8823,88.8236 61.5,88C 59.741,86.992 58.5743,85.492 58,83.5C 57.7837,85.3839 57.117,87.0506 56,88.5C 54.8492,77.8616 50.6826,68.5283 43.5,60.5C 36.6142,69.2305 30.2809,78.3972 24.5,88C 22.1902,88.4966 19.8568,88.6633 17.5,88.5C 21.5721,81.3582 25.4054,74.0249 29,66.5C 31.6892,59.9339 33.8559,53.2672 35.5,46.5C 35.2135,43.733 34.5468,41.0663 33.5,38.5C 32.0316,40.3329 30.3649,40.6662 28.5,39.5C 29.6759,36.2244 30.5092,32.891 31,29.5C 32.1667,27.8333 33.3333,26.1667 34.5,24.5C 29.8614,16.3916 28.8614,8.05824 31.5,-0.5 Z M 50.5,45.5 C 52.9039,48.6311 55.0706,51.9644 57,55.5C 57.8736,58.3787 57.5403,61.0454 56,63.5C 53.2853,57.7456 51.452,51.7456 50.5,45.5 Z" />
  </g>
</svg>